<mxfile host="app.diagrams.net" modified="2024-03-27T20:50:32.666Z" agent="Mozilla/5.0 (X11; Linux x86_64) AppleWebKit/537.36 (KHTML, like Gecko) Chrome/115.0.0.0 Safari/537.36" version="24.2.0" etag="B4s9gZj5PoKiuryq0BUg" type="github">
  <diagram name="Page-1" id="yhfcxGiVq9Wl0cgUhOVS">
    <mxGraphModel>
      <root>
        <mxCell id="0" />
        <mxCell id="1" parent="0" />
      </root>
    </mxGraphModel>
  </diagram>
</mxfile>
